<svg xmlns="http://www.w3.org/2000/svg" viewBox="0 0 800 800" width="100%" height="100%">
  <!-- Volcanic Charcoal Circle Background for light/dark tab contrast -->
  <circle cx="400" cy="400" r="370" fill="#2E2A2B" stroke="#bd9b60" stroke-width="12" />
  
  <!-- Centered Phoenix Rebirth Symbol from public/icon.svg -->
  <g transform="translate(150, 160) scale(0.7)">
    <style>
      .phoenix-path {
        fill: #bd9b60;
        fill-rule: evenodd;
      }
    </style>
    <polygon class="phoenix-path" points="304.84 601.04 357.04 684 409.25 601.04 357.04 433.14 304.84 601.04"/>
    <path class="phoenix-path" d="M675.15,209.05c-6.19,38.93-40.26,118.57-67.47,151.75l-152.64,24.56c87.38-28.98,179.85-99.55,220.11-176.31h0Z"/>
    <polygon class="phoenix-path" points="433.14 570.96 372.09 429.82 459.47 532.03 433.14 570.96"/>
    <path class="phoenix-path" d="M392.44,370.98l61.5-166.35c106.85-26.1,213.92-94.24,260.15-204.62-21.68,202.63-154.85,339.79-321.65,370.98h0Z"/>
    <polygon class="phoenix-path" points="398.85 273.42 315.23 273.42 357.04 375.62 398.85 273.42"/>
    <path class="phoenix-path" d="M38.93,209.05c6.19,38.93,40.26,118.57,67.47,151.75l152.86,24.56c-87.6-28.98-180.07-99.55-220.33-176.31h0Z"/>
    <polygon class="phoenix-path" points="280.94 570.96 342 429.82 254.62 532.03 280.94 570.96"/>
    <path class="phoenix-path" d="M321.65,370.98l-61.5-166.35C153.3,178.52,46.23,110.39,0,0c21.9,202.63,154.85,339.79,321.65,370.98h0Z"/>
  </g>
</svg>
